<svg width="164" height="50" viewBox="0 0 218 100" fill="none" xmlns="http://www.w3.org/2000/svg">
<rect width="50" height="50" fill="tranparent"/>
<g opacity="0.4" filter="url(#filter0_d_0_1)">
<path d="M4 10C4 4.47715 8.47715 0 14 0H86C91.5228 0 96 4.47715 96 10V82C96 87.5228 91.5228 92 86 92H14C8.47715 92 4 87.5228 4 82V10Z" fill="#FF7300"/>
<path d="M14 0.5H86C91.2467 0.5 95.5 4.7533 95.5 10V82C95.5 87.2467 91.2467 91.5 86 91.5H14C8.75329 91.5 4.5 87.2467 4.5 82V10C4.5 4.75329 8.7533 0.5 14 0.5Z" stroke="#FF7300"/>
</g>
<g filter="url(#filter1_d_0_1)">
<path d="M31.7294 34.6364H35.4581L41.9411 50.4659H42.1797L48.6626 34.6364H52.3913V55H49.468V40.2642H49.2791L43.2734 54.9702H40.8473L34.8416 40.2543H34.6527V55H31.7294V34.6364ZM63.0529 55.3082C61.5747 55.3082 60.302 54.9735 59.2347 54.304C58.1741 53.6278 57.3588 52.6965 56.7887 51.5099C56.2186 50.3234 55.9336 48.9645 55.9336 47.4332C55.9336 45.8821 56.2253 44.5133 56.8086 43.3267C57.3919 42.1335 58.2139 41.2022 59.2745 40.5327C60.3351 39.8632 61.5846 39.5284 63.0231 39.5284C64.1831 39.5284 65.2172 39.7438 66.1254 40.1747C67.0335 40.599 67.766 41.1955 68.3228 41.9645C68.8862 42.7334 69.221 43.6316 69.3271 44.6591H66.4336C66.2745 43.9432 65.9099 43.3267 65.3398 42.8097C64.7764 42.2926 64.0207 42.0341 63.0728 42.0341C62.2442 42.0341 61.5183 42.2528 60.8952 42.6903C60.2788 43.1212 59.7982 43.7377 59.4535 44.5398C59.1088 45.3352 58.9364 46.2765 58.9364 47.3636C58.9364 48.4773 59.1055 49.4384 59.4435 50.2472C59.7816 51.0559 60.2589 51.6823 60.8754 52.1264C61.4985 52.5705 62.2309 52.7926 63.0728 52.7926C63.6362 52.7926 64.1467 52.6899 64.604 52.4844C65.0681 52.2723 65.4558 51.9706 65.7674 51.5795C66.0856 51.1884 66.3076 50.7178 66.4336 50.1676H69.3271C69.221 51.1553 68.8995 52.0369 68.3626 52.8125C67.8256 53.5881 67.1064 54.1979 66.2049 54.642C65.31 55.0862 64.2594 55.3082 63.0529 55.3082Z" fill="white"/>
<path d="M31.7294 34.6364V34.1364H31.2294V34.6364H31.7294ZM35.4581 34.6364L35.9208 34.4469L35.7936 34.1364H35.4581V34.6364ZM41.9411 50.4659L41.4784 50.6554L41.6055 50.9659H41.9411V50.4659ZM42.1797 50.4659V50.9659H42.5152L42.6424 50.6554L42.1797 50.4659ZM48.6626 34.6364V34.1364H48.3271L48.1999 34.4469L48.6626 34.6364ZM52.3913 34.6364H52.8913V34.1364H52.3913V34.6364ZM52.3913 55V55.5H52.8913V55H52.3913ZM49.468 55H48.968V55.5H49.468V55ZM49.468 40.2642H49.968V39.7642H49.468V40.2642ZM49.2791 40.2642V39.7642H48.9432L48.8162 40.0752L49.2791 40.2642ZM43.2734 54.9702V55.4702H43.6093L43.7363 55.1592L43.2734 54.9702ZM40.8473 54.9702L40.3844 55.1591L40.5113 55.4702H40.8473V54.9702ZM34.8416 40.2543L35.3046 40.0653L35.1776 39.7543H34.8416V40.2543ZM34.6527 40.2543V39.7543H34.1527V40.2543H34.6527ZM34.6527 55V55.5H35.1527V55H34.6527ZM31.7294 55H31.2294V55.5H31.7294V55ZM31.7294 35.1364H35.4581V34.1364H31.7294V35.1364ZM34.9954 34.8259L41.4784 50.6554L42.4038 50.2764L35.9208 34.4469L34.9954 34.8259ZM41.9411 50.9659H42.1797V49.9659H41.9411V50.9659ZM42.6424 50.6554L49.1253 34.8259L48.1999 34.4469L41.717 50.2764L42.6424 50.6554ZM48.6626 35.1364H52.3913V34.1364H48.6626V35.1364ZM51.8913 34.6364V55H52.8913V34.6364H51.8913ZM52.3913 54.5H49.468V55.5H52.3913V54.5ZM49.968 55V40.2642H48.968V55H49.968ZM49.468 39.7642H49.2791V40.7642H49.468V39.7642ZM48.8162 40.0752L42.8105 54.7811L43.7363 55.1592L49.742 40.4532L48.8162 40.0752ZM43.2734 54.4702H40.8473V55.4702H43.2734V54.4702ZM41.3102 54.7812L35.3046 40.0653L34.3787 40.4432L40.3844 55.1591L41.3102 54.7812ZM34.8416 39.7543H34.6527V40.7543H34.8416V39.7543ZM34.1527 40.2543V55H35.1527V40.2543H34.1527ZM34.6527 54.5H31.7294V55.5H34.6527V54.5ZM32.2294 55V34.6364H31.2294V55H32.2294ZM59.2347 54.304L58.9659 54.7256L58.969 54.7275L59.2347 54.304ZM56.8086 43.3267L57.2573 43.5473L57.2578 43.5463L56.8086 43.3267ZM59.2745 40.5327L59.0076 40.1099L59.0076 40.1099L59.2745 40.5327ZM66.1254 40.1747L65.911 40.6265L65.9137 40.6277L66.1254 40.1747ZM68.3228 41.9645L67.9178 42.2577L67.9195 42.26L68.3228 41.9645ZM69.3271 44.6591V45.1591H69.8813L69.8244 44.6078L69.3271 44.6591ZM66.4336 44.6591L65.9455 44.7676L66.0325 45.1591H66.4336V44.6591ZM65.3398 42.8097L65.0018 43.1781L65.0039 43.18L65.3398 42.8097ZM60.8952 42.6903L61.1817 43.1002L61.1826 43.0995L60.8952 42.6903ZM59.4535 44.5398L59.9123 44.7386L59.9129 44.7372L59.4535 44.5398ZM59.4435 50.2472L59.9049 50.0543L59.9049 50.0543L59.4435 50.2472ZM60.8754 52.1264L60.5831 52.5321L60.5851 52.5336L60.8754 52.1264ZM64.604 52.4844L64.809 52.9405L64.8119 52.9391L64.604 52.4844ZM65.7674 51.5795L65.3795 51.264L65.3763 51.268L65.7674 51.5795ZM66.4336 50.1676V49.6676H66.0351L65.9462 50.056L66.4336 50.1676ZM69.3271 50.1676L69.8242 50.221L69.8836 49.6676H69.3271V50.1676ZM68.3626 52.8125L68.7737 53.0971L68.7737 53.0971L68.3626 52.8125ZM66.2049 54.642L65.9839 54.1935L65.9826 54.1942L66.2049 54.642ZM63.0529 54.8082C61.6521 54.8082 60.4751 54.4919 59.5004 53.8804L58.969 54.7275C60.1288 55.4551 61.4972 55.8082 63.0529 55.8082V54.8082ZM59.5035 53.8824C58.5252 53.2587 57.7711 52.4001 57.2394 51.2934L56.338 51.7265C56.9465 52.9929 57.823 53.997 58.966 54.7256L59.5035 53.8824ZM57.2394 51.2934C56.7067 50.1846 56.4336 48.9017 56.4336 47.4332H55.4336C55.4336 49.0273 55.7306 50.4622 56.338 51.7265L57.2394 51.2934ZM56.4336 47.4332C56.4336 45.9454 56.7131 44.6543 57.2573 43.5473L56.3599 43.1061C55.7374 44.3722 55.4336 45.8188 55.4336 47.4332H56.4336ZM57.2578 43.5463C57.8029 42.4313 58.5639 41.5725 59.5414 40.9555L59.0076 40.1099C57.8639 40.8318 56.981 41.8357 56.3594 43.1071L57.2578 43.5463ZM59.5414 40.9555C60.5109 40.3435 61.6649 40.0284 63.0231 40.0284V39.0284C61.5044 39.0284 60.1593 39.3828 59.0076 40.1099L59.5414 40.9555ZM63.0231 40.0284C64.1204 40.0284 65.0795 40.2319 65.911 40.6265L66.3397 39.723C65.355 39.2558 64.2459 39.0284 63.0231 39.0284V40.0284ZM65.9137 40.6277C66.7493 41.0181 67.4136 41.5615 67.9178 42.2577L68.7278 41.6712C68.1183 40.8296 67.3177 40.1798 66.337 39.7217L65.9137 40.6277ZM67.9195 42.26C68.4261 42.9514 68.732 43.7637 68.8297 44.7104L69.8244 44.6078C69.71 43.4996 69.3464 42.5154 68.7261 41.669L67.9195 42.26ZM69.3271 44.1591H66.4336V45.1591H69.3271V44.1591ZM66.9217 44.5506C66.739 43.7286 66.3184 43.0222 65.6758 42.4393L65.0039 43.18C65.5014 43.6312 65.81 44.1578 65.9455 44.7676L66.9217 44.5506ZM65.6779 42.4413C65.0015 41.8205 64.1145 41.5341 63.0728 41.5341V42.5341C63.9269 42.5341 64.5513 42.7647 65.0018 43.1781L65.6779 42.4413ZM63.0728 41.5341C62.1509 41.5341 61.3227 41.7793 60.6079 42.2811L61.1826 43.0995C61.714 42.7264 62.3375 42.5341 63.0728 42.5341V41.5341ZM60.6088 42.2805C59.9044 42.7728 59.3695 43.4687 58.9941 44.3424L59.9129 44.7372C60.2268 44.0066 60.6531 43.4696 61.1817 43.1002L60.6088 42.2805ZM58.9947 44.341C58.6168 45.2129 58.4364 46.2249 58.4364 47.3636H59.4364C59.4364 46.3281 59.6007 45.4575 59.9123 44.7386L58.9947 44.341ZM58.4364 47.3636C58.4364 48.5263 58.6127 49.5561 58.9822 50.44L59.9049 50.0543C59.5982 49.3208 59.4364 48.4283 59.4364 47.3636H58.4364ZM58.9822 50.44C59.3503 51.3206 59.8808 52.0261 60.5831 52.5321L61.1676 51.7207C60.637 51.3384 60.2129 50.7912 59.9049 50.0543L58.9822 50.44ZM60.5851 52.5336C61.3015 53.0441 62.1378 53.2926 63.0728 53.2926V52.2926C62.324 52.2926 61.6955 52.097 61.1656 51.7193L60.5851 52.5336ZM63.0728 53.2926C63.6981 53.2926 64.2796 53.1783 64.809 52.9405L64.3991 52.0283C64.0137 52.2014 63.5744 52.2926 63.0728 52.2926V53.2926ZM64.8119 52.9391C65.3459 52.695 65.7969 52.3449 66.1585 51.8911L65.3763 51.268C65.1148 51.5964 64.7902 51.8495 64.3962 52.0296L64.8119 52.9391ZM66.1553 51.8951C66.5273 51.4377 66.78 50.8951 66.921 50.2792L65.9462 50.056C65.8353 50.5405 65.6438 50.9391 65.3795 51.264L66.1553 51.8951ZM66.4336 50.6676H69.3271V49.6676H66.4336V50.6676ZM68.8299 50.1142C68.7323 51.0234 68.4383 51.8247 67.9515 52.5279L68.7737 53.0971C69.3607 52.2492 69.7097 51.2872 69.8242 50.221L68.8299 50.1142ZM67.9515 52.5279C67.4661 53.229 66.8143 53.7844 65.9839 54.1935L66.4259 55.0906C67.3985 54.6114 68.1852 53.9472 68.7737 53.0971L67.9515 52.5279ZM65.9826 54.1942C65.1697 54.5976 64.198 54.8082 63.0529 54.8082V55.8082C64.3207 55.8082 65.4503 55.5747 66.4272 55.0899L65.9826 54.1942Z" fill="#FF7300"/>
</g>
<path d="M107.227 54.9023V36.2744H111.89C112.362 36.2744 112.882 36.307 113.452 36.3721C114.038 36.4209 114.6 36.5348 115.137 36.7139C115.674 36.8766 116.121 37.137 116.479 37.4951C117.489 38.5042 117.993 39.7331 117.993 41.1816C117.993 42.3047 117.83 43.2161 117.505 43.916C117.179 44.5996 116.732 45.1204 116.162 45.4785C115.609 45.8366 114.966 46.0889 114.233 46.2354C113.501 46.3656 112.72 46.4388 111.89 46.4551C111.076 46.4551 110.246 46.4551 109.399 46.4551V54.9023H107.227ZM109.399 44.4531H111.768C112.484 44.4531 113.143 44.3636 113.745 44.1846C114.347 44.0055 114.836 43.6882 115.21 43.2324C115.584 42.7767 115.771 42.1419 115.771 41.3281C115.771 40.4655 115.609 39.8226 115.283 39.3994C114.958 38.96 114.51 38.667 113.94 38.5205C113.371 38.3577 112.712 38.2764 111.963 38.2764H109.399V44.4531ZM125 55.0732C123.958 55.0732 123.088 54.8942 122.388 54.5361C121.704 54.1781 121.159 53.6816 120.752 53.0469C120.361 52.4121 120.076 51.6878 119.897 50.874C119.735 50.0439 119.653 49.1732 119.653 48.2617C119.653 47.0085 119.816 45.8854 120.142 44.8926C120.483 43.8997 121.045 43.1185 121.826 42.5488C122.624 41.9629 123.714 41.6699 125.098 41.6699C126.074 41.6699 126.896 41.8571 127.563 42.2314C128.231 42.6058 128.768 43.1104 129.175 43.7451C129.582 44.3799 129.875 45.096 130.054 45.8936C130.249 46.6911 130.347 47.513 130.347 48.3594C130.347 49.2383 130.249 50.0765 130.054 50.874C129.875 51.6715 129.574 52.3877 129.15 53.0225C128.743 53.6572 128.198 54.1618 127.515 54.5361C126.831 54.8942 125.993 55.0732 125 55.0732ZM125 53.1445C125.667 53.1445 126.213 53.0062 126.636 52.7295C127.059 52.4365 127.384 52.054 127.612 51.582C127.84 51.11 127.995 50.5973 128.076 50.0439C128.158 49.4906 128.198 48.9372 128.198 48.3838C128.198 47.8304 128.158 47.277 128.076 46.7236C127.995 46.154 127.832 45.6331 127.588 45.1611C127.36 44.6891 127.035 44.3148 126.611 44.0381C126.188 43.7451 125.635 43.5986 124.951 43.5986C124.284 43.5986 123.739 43.7451 123.315 44.0381C122.909 44.3311 122.591 44.7135 122.363 45.1855C122.152 45.6576 122.005 46.1784 121.924 46.748C121.842 47.3014 121.802 47.8467 121.802 48.3838C121.802 48.9372 121.842 49.4906 121.924 50.0439C122.005 50.5973 122.16 51.11 122.388 51.582C122.616 52.054 122.941 52.4365 123.364 52.7295C123.787 53.0062 124.333 53.1445 125 53.1445ZM134.277 54.9023V41.8408H136.353V43.6719C136.922 42.9883 137.573 42.4919 138.306 42.1826C139.038 41.8571 139.844 41.6862 140.723 41.6699V43.7939H140.454C139.917 43.7939 139.388 43.8509 138.867 43.9648C138.346 44.0788 137.882 44.2904 137.476 44.5996C137.069 44.8926 136.759 45.3158 136.548 45.8691C136.515 45.9831 136.475 46.1377 136.426 46.333C136.377 46.512 136.353 46.6585 136.353 46.7725V54.9023H134.277ZM151.733 54.7314C150.936 54.7314 150.326 54.6501 149.902 54.4873C149.479 54.3245 149.194 54.0316 149.048 53.6084C148.901 53.1852 148.828 52.5749 148.828 51.7773V43.9648H146.069V42.0361H148.828V37.6172H150.903V42.0361H153.931V43.9648H150.903V51.2402C150.903 51.3867 150.911 51.6227 150.928 51.9482C150.96 52.2738 151.042 52.4854 151.172 52.583C151.318 52.6807 151.562 52.7458 151.904 52.7783C152.262 52.8109 152.612 52.8271 152.954 52.8271C153.312 52.8109 153.564 52.8027 153.711 52.8027V54.7314H151.733ZM161.377 54.9023V43.9648H158.35V42.0361H161.377V39.0088C161.377 38.0648 161.605 37.373 162.061 36.9336C162.533 36.4941 163.241 36.2744 164.185 36.2744H166.528V38.2031C166.219 38.2031 165.885 38.195 165.527 38.1787C165.169 38.1462 164.836 38.1543 164.526 38.2031C164.217 38.252 163.957 38.374 163.745 38.5693C163.55 38.7646 163.452 39.082 163.452 39.5215V42.0361H166.65V43.9648H163.452V54.9023H161.377ZM175 55.0732C173.958 55.0732 173.088 54.8942 172.388 54.5361C171.704 54.1781 171.159 53.6816 170.752 53.0469C170.361 52.4121 170.076 51.6878 169.897 50.874C169.735 50.0439 169.653 49.1732 169.653 48.2617C169.653 47.0085 169.816 45.8854 170.142 44.8926C170.483 43.8997 171.045 43.1185 171.826 42.5488C172.624 41.9629 173.714 41.6699 175.098 41.6699C176.074 41.6699 176.896 41.8571 177.563 42.2314C178.231 42.6058 178.768 43.1104 179.175 43.7451C179.582 44.3799 179.875 45.096 180.054 45.8936C180.249 46.6911 180.347 47.513 180.347 48.3594C180.347 49.2383 180.249 50.0765 180.054 50.874C179.875 51.6715 179.574 52.3877 179.15 53.0225C178.743 53.6572 178.198 54.1618 177.515 54.5361C176.831 54.8942 175.993 55.0732 175 55.0732ZM175 53.1445C175.667 53.1445 176.213 53.0062 176.636 52.7295C177.059 52.4365 177.384 52.054 177.612 51.582C177.84 51.11 177.995 50.5973 178.076 50.0439C178.158 49.4906 178.198 48.9372 178.198 48.3838C178.198 47.8304 178.158 47.277 178.076 46.7236C177.995 46.154 177.832 45.6331 177.588 45.1611C177.36 44.6891 177.035 44.3148 176.611 44.0381C176.188 43.7451 175.635 43.5986 174.951 43.5986C174.284 43.5986 173.739 43.7451 173.315 44.0381C172.909 44.3311 172.591 44.7135 172.363 45.1855C172.152 45.6576 172.005 46.1784 171.924 46.748C171.842 47.3014 171.802 47.8467 171.802 48.3838C171.802 48.9372 171.842 49.4906 171.924 50.0439C172.005 50.5973 172.16 51.11 172.388 51.582C172.616 52.054 172.941 52.4365 173.364 52.7295C173.787 53.0062 174.333 53.1445 175 53.1445ZM186.426 54.9023V36.1035H188.574V54.9023H186.426ZM198.755 38.5938V36.1035H201.245V38.5938H198.755ZM198.926 54.9023V41.8408H201.074V54.9023H198.926ZM212.5 55.0732C211.458 55.0732 210.588 54.8942 209.888 54.5361C209.204 54.1781 208.659 53.6816 208.252 53.0469C207.861 52.4121 207.576 51.6878 207.397 50.874C207.235 50.0439 207.153 49.1732 207.153 48.2617C207.153 47.0085 207.316 45.8854 207.642 44.8926C207.983 43.8997 208.545 43.1185 209.326 42.5488C210.124 41.9629 211.214 41.6699 212.598 41.6699C213.574 41.6699 214.396 41.8571 215.063 42.2314C215.731 42.6058 216.268 43.1104 216.675 43.7451C217.082 44.3799 217.375 45.096 217.554 45.8936C217.749 46.6911 217.847 47.513 217.847 48.3594C217.847 49.2383 217.749 50.0765 217.554 50.874C217.375 51.6715 217.074 52.3877 216.65 53.0225C216.243 53.6572 215.698 54.1618 215.015 54.5361C214.331 54.8942 213.493 55.0732 212.5 55.0732ZM212.5 53.1445C213.167 53.1445 213.713 53.0062 214.136 52.7295C214.559 52.4365 214.884 52.054 215.112 51.582C215.34 51.11 215.495 50.5973 215.576 50.0439C215.658 49.4906 215.698 48.9372 215.698 48.3838C215.698 47.8304 215.658 47.277 215.576 46.7236C215.495 46.154 215.332 45.6331 215.088 45.1611C214.86 44.6891 214.535 44.3148 214.111 44.0381C213.688 43.7451 213.135 43.5986 212.451 43.5986C211.784 43.5986 211.239 43.7451 210.815 44.0381C210.409 44.3311 210.091 44.7135 209.863 45.1855C209.652 45.6576 209.505 46.1784 209.424 46.748C209.342 47.3014 209.302 47.8467 209.302 48.3838C209.302 48.9372 209.342 49.4906 209.424 50.0439C209.505 50.5973 209.66 51.11 209.888 51.582C210.116 52.054 210.441 52.4365 210.864 52.7295C211.287 53.0062 211.833 53.1445 212.5 53.1445Z" fill="#FF7300"/>
<defs>
<filter id="filter0_d_0_1" x="0" y="0" width="100" height="100" filterUnits="userSpaceOnUse" color-interpolation-filters="sRGB">
<feFlood flood-opacity="0" result="BackgroundImageFix"/>
<feColorMatrix in="SourceAlpha" type="matrix" values="0 0 0 0 0 0 0 0 0 0 0 0 0 0 0 0 0 0 127 0" result="hardAlpha"/>
<feOffset dy="4"/>
<feGaussianBlur stdDeviation="2"/>
<feComposite in2="hardAlpha" operator="out"/>
<feColorMatrix type="matrix" values="0 0 0 0 0 0 0 0 0 0 0 0 0 0 0 0 0 0 0.25 0"/>
<feBlend mode="normal" in2="BackgroundImageFix" result="effect1_dropShadow_0_1"/>
<feBlend mode="normal" in="SourceGraphic" in2="effect1_dropShadow_0_1" result="shape"/>
</filter>
<filter id="filter1_d_0_1" x="27.7294" y="34.6364" width="45.5977" height="28.6719" filterUnits="userSpaceOnUse" color-interpolation-filters="sRGB">
<feFlood flood-opacity="0" result="BackgroundImageFix"/>
<feColorMatrix in="SourceAlpha" type="matrix" values="0 0 0 0 0 0 0 0 0 0 0 0 0 0 0 0 0 0 127 0" result="hardAlpha"/>
<feOffset dy="4"/>
<feGaussianBlur stdDeviation="2"/>
<feComposite in2="hardAlpha" operator="out"/>
<feColorMatrix type="matrix" values="0 0 0 0 0 0 0 0 0 0 0 0 0 0 0 0 0 0 0.25 0"/>
<feBlend mode="normal" in2="BackgroundImageFix" result="effect1_dropShadow_0_1"/>
<feBlend mode="normal" in="SourceGraphic" in2="effect1_dropShadow_0_1" result="shape"/>
</filter>
</defs>
</svg>
